<?xml version="1.0" encoding="utf-8"?>
<!-- Generator: Adobe Illustrator 25.4.1, SVG Export Plug-In . SVG Version: 6.00 Build 0)  -->
<svg version="1.1" id="Layer_1" xmlns="http://www.w3.org/2000/svg" xmlns:xlink="http://www.w3.org/1999/xlink" x="0px" y="0px"
	 viewBox="0 0 500 500" style="enable-background:new 0 0 500 500;" xml:space="preserve">
<style type="text/css">
	.st0{fill:#ED1C24;}
</style>
<g>
	<path class="st0" d="M197.23,414.85c-7.09-0.26-14.17-0.54-21.26-0.76c-13.34-0.41-26.75-0.05-39.99-1.36
		c-12.95-1.29-22.04-9.26-26.56-21.37c-4.71-12.64-5.34-25.89-2.52-39.11c2.79-13.11,15.47-23.96,28.8-25.18
		c1.23-0.11,2.44-0.38,3.69-0.58c0-5.92,0.06-11.63-0.01-17.35c-0.39-30.62-1.83-61.26-0.95-91.84
		c0.88-30.61,14.75-55.96,37.7-75.92c24.39-21.22,52.97-31.15,85.28-27.85c53.5,5.47,95.25,48.12,100.43,97.45
		c1.22,11.63,0.91,23.46,0.76,35.19c-0.32,25.37-0.99,50.73-1.52,76.09c-0.03,1.24,0,2.48,0,3.97c1.15,0.27,2.19,0.63,3.25,0.76
		c16.36,1.96,28.25,13.56,30.38,29.66c1.39,10.54,0.6,20.93-2.15,31.17c-4.02,14.97-16.77,25.05-32.23,25.42
		c-17.71,0.43-35.41,0.76-53.12,1.17c-1.23,0.03-2.45,0.28-3.68,0.43C268.09,414.85,232.66,414.85,197.23,414.85z M332.17,324.64
		c0.16-1.9,0.34-3.13,0.36-4.36c0.58-32.97,1.22-65.95,1.6-98.92c0.06-4.81-0.76-9.73-1.85-14.44
		c-11.7-50.29-65.21-78.23-113.06-59.14c-30.58,12.2-52.68,42.74-52.59,74.06c0.09,32.72,1,65.45,1.56,98.17
		c0.02,1.34,0.22,2.68,0.39,4.64C223.11,320.69,277.38,320.68,332.17,324.64z M250.35,386.54c0-0.25,0-0.5,0-0.75
		c15.71,0,31.42,0.12,47.12-0.03c20.07-0.2,40.14-0.59,60.21-0.97c5.29-0.1,7.14-1.4,7.79-6.6c0.72-5.79,0.85-11.67,0.85-17.51
		c0-3.04-1.83-5.01-5.19-5.24c-6.59-0.45-13.15-1.19-19.74-1.52c-25.52-1.27-51.03-3.08-76.57-3.42
		c-24.79-0.33-49.61,0.58-74.39,1.52c-16.92,0.64-33.81,2.28-50.71,3.42c-3.55,0.24-5.29,2.33-5.3,5.54
		c-0.03,5.34,0.04,10.73,0.7,16.02c0.83,6.6,2.36,7.72,9.02,7.84C179.54,385.42,214.94,385.98,250.35,386.54z"/>
	<path class="st0" d="M58.38,229.13c0.44-0.86,0.9-1.72,1.33-2.58c2.87-5.87,7.43-9.34,14.07-9.43c9.1-0.12,18.2-0.16,27.29,0.01
		c8.48,0.16,15,6.7,15.52,15.2c0.48,7.96-5.6,15.8-13.84,16.3c-10.17,0.61-20.42,0.5-30.61,0.04c-7.34-0.34-11.21-5.67-13.76-12.02
		C58.38,234.13,58.38,231.63,58.38,229.13z"/>
	<path class="st0" d="M253.75,37.88c9.34,3.55,12.87,10.43,12.28,20.23c-0.46,7.71,0.07,15.49-0.25,23.21
		c-0.33,7.9-6.23,13.75-14.29,14.81c-6.84,0.9-15.55-3.7-16.23-10.83c-1.15-12.18-0.87-24.58-0.03-36.81
		c0.38-5.66,5.98-8.46,11.03-10.61C248.76,37.88,251.25,37.88,253.75,37.88z"/>
	<path class="st0" d="M106.84,106.65c0.92-6.85,3.86-11.69,9.54-14.57c5.82-2.95,11.95-2.75,16.8,1.63
		c7.49,6.76,14.66,13.92,21.42,21.4c5.39,5.97,4.48,15.46-1.17,21.11c-5.65,5.64-15.11,6.56-21.08,1.19
		c-7.4-6.67-14.42-13.81-21.11-21.2C109,113.72,108.26,109.87,106.84,106.65z"/>
	<path class="st0" d="M392.35,106.27c0.1,4.53-1.61,8.32-4.71,11.46c-6.04,6.13-12.08,12.27-18.25,18.26
		c-6.65,6.46-16.61,6.47-22.81,0.2c-6.28-6.35-6.24-16.12,0.28-22.83c6.17-6.35,12.37-12.68,18.81-18.76
		c5-4.72,11.04-5.63,17.31-2.81C389.11,94.55,392.13,99.57,392.35,106.27z"/>
	<path class="st0" d="M412.54,217.1c4.74,0.01,9.48-0.13,14.21,0.04c7.86,0.28,14.45,6.86,14.85,14.59
		c0.44,8.53-5.01,16.26-13.13,16.78c-10.54,0.67-21.18,0.65-31.72,0.02c-7.93-0.48-13.88-8.54-13.32-16.35
		c0.59-8.36,7.03-14.79,15.28-15.05C403.31,216.97,407.93,217.09,412.54,217.1z"/>
	<path class="st0" d="M235.8,219.63c0-9.74-0.02-19.47,0.01-29.21c0.03-8.51,5.93-14.65,14.07-14.71
		c8.3-0.07,14.32,6.12,14.33,14.83c0.03,19.47,0.02,38.94,0,58.41c-0.01,8.71-6.03,14.98-14.26,14.94
		c-8.23-0.03-14.13-6.29-14.15-15.06C235.78,239.1,235.8,229.36,235.8,219.63z"/>
	<path class="st0" d="M249.56,308.05c-9.29-0.23-16.81-8.13-16.43-17.25c0.39-9.35,8.26-16.85,17.32-16.51
		c9.25,0.35,16.8,8.34,16.44,17.39C266.51,301.11,258.91,308.28,249.56,308.05z"/>
</g>
</svg>
