<?xml version="1.0" encoding="utf-8"?>
<!-- Generator: Adobe Illustrator 25.4.1, SVG Export Plug-In . SVG Version: 6.00 Build 0)  -->
<svg version="1.1" id="Layer_1" xmlns="http://www.w3.org/2000/svg" xmlns:xlink="http://www.w3.org/1999/xlink" x="0px" y="0px"
	 viewBox="0 0 500 500" style="enable-background:new 0 0 500 500;" xml:space="preserve">
<style type="text/css">
	.st0{fill:#39B54A;}
</style>
<path class="st0" d="M0,155.74c1.14-4.67,2.04-9.43,3.48-14.01c4.01-12.78,11.56-22.77,24.08-28.23
	c14.24-6.21,28.5-12.41,42.99-17.99c11.54-4.44,23.35,0.05,29.64,10.77c11.67,19.88,23.2,39.83,34.59,59.86
	c7.31,12.84,3.39,27.03-9.62,34.46c-9.93,5.67-17.78,12.88-21.4,24.04c-4.45,13.72-2.42,26.41,6.24,37.88
	c29.68,39.3,64.15,73.86,103.49,103.49c20.71,15.6,47.59,9.79,60.75-13.07c4.71-8.17,10.8-14.25,20.43-14.73
	c4.75-0.24,10.22,0.59,14.32,2.85c20.7,11.39,41.13,23.28,61.49,35.28c10.23,6.03,14.55,18.06,10.29,29.09
	c-5.29,13.67-11.24,27.08-16.93,40.59c-8.76,20.79-26.03,28.45-46.97,29.86c-23.07,1.55-44.8-4.47-65.98-12.86
	c-37.94-15.04-71.56-37.2-102.77-63.15c-43.48-36.15-81.1-77.55-110.6-125.98c-15.33-25.17-27.9-51.6-34.27-80.61
	c-1.25-5.71-2.17-11.5-3.24-17.25C0,169.27,0,162.51,0,155.74z"/>
<path class="st0" d="M270.74,41.47c-48.78,0.63-85.62,15.59-116.47,45.25c-7.42,7.13-16.62,7.15-22.41,0.12
	c-4.75-5.77-4.34-14.08,1.16-19.58c19.73-19.71,42.61-34.68,69.02-43.64c55.08-18.68,108.4-14.26,158.41,15.73
	c48.89,29.32,79.05,72.7,88.36,129.09c10.26,62.19-7.41,116.37-50.74,162.16c-4.19,4.42-9.16,6.36-15.11,4.72
	c-5.58-1.53-9.03-5.37-10.26-11c-1.21-5.53,0.93-10.02,4.76-13.93c11.6-11.83,21.19-25.1,28.64-39.93
	c45.81-91.12-6.12-201.91-105.6-224.7C288.83,43.08,276.74,42.3,270.74,41.47z"/>
<path class="st0" d="M218.16,256.16c2.58,0,3.98,0,5.38,0c12.2,0,24.4-0.07,36.6,0.03c7.42,0.06,13.27,5.73,14.01,13.24
	c0.65,6.7-4.28,13.43-11.12,14.93c-1.99,0.44-4.07,0.58-6.11,0.58c-21.76,0.04-43.51,0.04-65.27,0.02
	c-14.78-0.02-21.26-10.81-14.24-23.75c8.02-14.78,20.11-25.89,32.92-36.35c8.19-6.69,16.39-13.37,24.46-20.2
	c3.44-2.9,5.69-6.52,6.22-11.26c0.87-7.74-0.42-14.39-7.75-18.59c-7.81-4.48-18.86-4.07-25.02,0.88c-3.48,2.8-4.71,6.56-4.73,10.9
	c-0.01,2.48,0.08,5.04-0.48,7.41c-1.73,7.25-7.96,11.53-15.41,10.92c-6.78-0.56-12.31-6.38-12.87-13.49
	c-2.54-32.64,22.82-49.55,48.02-48.52c23.07,0.95,40.64,13.73,45.59,33.48c4.69,18.68,1.07,35.76-13.71,49.07
	c-9.92,8.94-20.54,17.11-30.82,25.64C222.19,252.47,220.64,253.94,218.16,256.16z"/>
<path class="st0" d="M364.93,225.43c12.05,1.93,17.14,6.61,16.97,15.18c-0.16,8.33-5.33,12.88-16.97,14.41c0,4.66,0.02,9.44,0,14.22
	c-0.04,9.11-6.02,15.67-14.29,15.72c-8.19,0.04-14.39-6.55-14.56-15.59c-0.09-4.69-0.02-9.38-0.02-14.71c-1.93,0-3.49,0-5.05,0
	c-15.44,0-30.88-0.09-46.31,0.04c-6.71,0.06-12.23-1.85-15.31-8.19c-3.18-6.55-1.02-12.1,3.35-17.4
	c21.92-26.5,43.73-53.09,65.59-79.64c4.92-5.98,10.85-7.93,17.12-5.69c6.2,2.22,9.47,7.47,9.47,15.3c0.01,20.44,0,40.87,0,61.31
	C364.93,222,364.93,223.61,364.93,225.43z M313.09,225.56c8.17,0,15.4,0,22.61,0c0-9.05,0-17.74,0-27.46
	C327.9,207.58,320.76,216.25,313.09,225.56z"/>
</svg>
