<?xml version="1.0" encoding="utf-8"?>
<!-- Generator: Adobe Illustrator 25.4.1, SVG Export Plug-In . SVG Version: 6.00 Build 0)  -->
<svg version="1.1" id="Layer_1" xmlns="http://www.w3.org/2000/svg" xmlns:xlink="http://www.w3.org/1999/xlink" x="0px" y="0px"
	 viewBox="0 0 500 500" style="enable-background:new 0 0 500 500;" xml:space="preserve">
<style type="text/css">
	.st0{fill:#00A79D;stroke:#000000;stroke-width:6;stroke-miterlimit:10;}
	.st1{fill:#00A79D;stroke:#000000;stroke-width:5;stroke-miterlimit:10;}
</style>
<g>
	<path class="st0" d="M234.84,82.81c47.95,2.45,87.52,21.77,117.57,59.45c22.38,28.07,33.36,60.42,33.52,96.39
		c0.03,6.81-5.08,12.01-11.62,12.13c-6.82,0.12-12.03-4.93-12.3-11.85c-0.13-3.37-0.33-6.74-0.59-10.1
		c-4.69-59.61-47.84-108.25-106.36-119.52c-8.03-1.55-16.31-1.91-24.51-2.45c-7.26-0.48-12.35-5.34-12.25-12.33
		c0.1-6.73,5.32-11.65,12.41-11.7C232.09,82.8,233.46,82.81,234.84,82.81z"/>
	<path class="st1" d="M237.67,150.78c42.08,0.44,81.1,32.63,90.14,74.7c1.46,6.78,1.96,13.82,2.31,20.77
		c0.36,7.07-4.88,12.37-11.54,12.49c-6.97,0.12-12.09-4.97-12.29-12.22c-0.95-34.39-23.03-62.1-55.87-69.79
		c-4.93-1.16-10.08-1.62-15.16-1.9c-7.67-0.43-12.83-5.12-12.8-12.16c0.03-7.04,5.32-11.89,12.97-11.89
		C236.18,150.78,236.92,150.78,237.67,150.78z"/>
	<path class="st1" d="M392.81,337.21c-5.14,5.29-9.96,10.49-15.03,15.43c-14.34,13.97-29.92,26.39-46.46,37.67
		c-4,2.73-7.65,3.23-12.15,2.38c-23.5-4.4-45.44-13.08-66.03-24.96c-64.78-37.38-115.27-88.81-150.2-155.21
		c-9.32-17.72-16.03-36.47-19.67-56.26c-0.8-4.36-0.37-7.95,2.26-11.85c14.79-21.97,31.78-41.99,51.24-59.91
		c0.54-0.5,1.12-0.96,1.98-1.68c0.95,1.1,1.9,2.05,2.67,3.11c15.77,21.78,29.37,44.84,40.89,69.16c0.96,2.02,0.57,3.09-0.96,4.4
		c-6.99,6.03-13.94,12.1-20.84,18.24c-1.95,1.74-3.61,3.8-5.51,5.61c-3.93,3.77-4.71,8.23-3.4,13.38
		c5.86,22.99,16.89,43.42,31.27,62.03c23.1,29.91,52.64,50.89,88.3,63.52c10.98,3.89,19.4,2.66,26.69-6.76
		c5.49-7.1,11.7-13.64,17.47-20.53c1.67-1.99,2.97-2.47,5.58-1.23c23.95,11.35,46.62,24.82,68.08,40.38
		C390.17,334.99,391.29,335.98,392.81,337.21z"/>
</g>
</svg>
