<?xml version="1.0" encoding="utf-8"?>
<!-- Generator: Adobe Illustrator 25.4.1, SVG Export Plug-In . SVG Version: 6.00 Build 0)  -->
<svg version="1.1" id="Layer_1" xmlns="http://www.w3.org/2000/svg" xmlns:xlink="http://www.w3.org/1999/xlink" x="0px" y="0px"
	 viewBox="0 0 500 500" style="enable-background:new 0 0 500 500;" xml:space="preserve">
<style type="text/css">
	.st0{fill:#21409A;}
	.st1{fill:#FFFFFF;}
</style>
<path class="st0" d="M39.85,442.9c4.38-12.5,8.83-24.98,13.11-37.52c5.28-15.48,10.32-31.03,15.62-46.5
	c4.74-13.83,13.62-24.75,24.54-34.55c12.17-10.93,26.98-15.01,42.4-18.27c19.74-4.18,39.42-8.61,59.15-12.8
	c2.62-0.56,3.6-1.54,3.53-4.23c-0.18-6.7-0.57-13.47,0.1-20.11c0.57-5.69-2.12-8.72-6.39-11.56c-18.66-12.4-32.09-28.93-40.05-49.64
	c-4.03-10.49-6.23-21.44-6.43-32.61c-0.33-18.78-0.33-37.57-0.04-56.35c0.23-14.87,6.82-27.2,16.52-38.42
	c18.39-21.29,41.6-34.02,69.58-37.9c36.28-5.03,69.18,3.03,96.57,27.57c11.14,9.98,21.38,21.27,24.75,36.59
	c0.97,4.43,1.86,8.99,1.87,13.5c0.04,19.85,0.62,39.76-0.62,59.55c-1.95,31.21-16.74,56.1-42.04,75.04
	c-2.68,2.01-5.49,3.89-7.95,6.14c-1.1,1.01-2.06,2.77-2.1,4.21c-0.2,7.91,0.03,15.84-0.16,23.75c-0.07,2.82,0.83,3.89,3.69,4.5
	c23.33,4.97,46.62,10.08,69.91,15.23c9.84,2.18,19.16,5.87,27.01,12.05c13.73,10.81,24.46,23.83,29.95,40.7
	c8.5,26.12,17.45,52.11,26.21,78.16c3.34,9.93,1.56,14.62-7.45,19.6c-2.19,0-4.38,0-6.57,0c-4.84-2.19-7.75-5.73-9.42-10.83
	c-8.96-27.35-17.69-54.79-27.45-81.88c-9.08-25.21-30.1-33.63-52.85-36.06c0,8.45-0.06,16.86,0.1,25.27
	c0.01,0.75,1.37,1.81,2.31,2.15c24.29,8.71,37.07,26.58,37.1,52.02c0.01,11-0.3,22,0.11,32.98c0.27,7.46-2.06,12.99-9.02,16.35
	c-6.57,0-13.13,0-19.7,0c-4.23-1.87-7.82-4.34-8.99-9.13c-2.03-8.29,2.64-14.41,12.29-16.16c0-10.43,0.8-20.93-0.23-31.25
	c-0.98-9.85-7.76-16.93-16.76-20.65c-17.13-7.08-33.75,5.16-36.07,20.27c-1.59,10.32-0.3,21.06-0.3,31.65
	c9.07,1.65,13.36,6.62,12.49,14.52c-0.62,5.64-4.39,8.61-9.2,10.75c-6.57,0-13.13,0-19.7,0c-5.22-2.71-8.97-6.39-8.95-12.69
	c0.04-13.69-0.17-27.38,0.1-41.06c0.19-9.54,2.93-18.54,8.27-26.56c6.76-10.13,16.44-16.62,27.91-20.81c1.3-0.48,3.07-2.08,3.1-3.19
	c0.25-9.39,0.2-18.79,0.04-28.18c-0.02-0.94-1.18-2.44-2.1-2.7c-7.28-2.04-14.61-3.9-21.96-5.68c-3.17-0.77-7.05-2.54-9.46-1.43
	c-2.53,1.16-3.69,5.21-5.45,8c-0.14,0.23-0.29,0.45-0.43,0.68c-9.49,15.51-18.96,31.04-28.48,46.54
	c-6.62,10.79-17.14,10.78-23.73-0.06c-10.55-17.37-21.07-34.76-31.43-52.24c-1.65-2.78-3.17-3.67-6.46-2.77
	c-9.13,2.48-18.34,4.7-27.58,6.78c-2.49,0.56-2.51,1.94-2.5,3.77c0.02,17.71,0.04,35.43-0.02,53.14c-0.01,2.61,0.97,4.03,3.44,5.16
	c15.22,6.97,24.49,22.56,22.8,37.62c-1.82,16.28-13.85,31.91-30.77,34.9c-0.63,0.11-1.2,0.51-1.8,0.78c-4.1,0-8.21,0-12.31,0
	c-9.22-2.71-17.4-6.51-23.72-14.39c-15.84-19.77-9.63-48.04,13.63-58.74c3.02-1.39,3.86-3.14,3.84-6.14
	c-0.1-15.29-0.04-30.58-0.06-45.87c0-1.18-0.14-2.35-0.24-4c-3.34,0.68-6.35,1.34-9.39,1.9c-23.02,4.33-38.24,17.22-45.1,39.37
	c-1.9,6.14-3.96,12.24-6.01,18.33c-6.21,18.41-12.65,36.75-18.59,55.24c-1.95,6.06-3.83,11.7-10.4,14.31c-2.19,0-4.38,0-6.57,0
	c-4.22-1.77-7.15-4.8-9.03-8.86C39.85,447.73,39.85,445.31,39.85,442.9z M252.6,250.47c15.48-0.27,32-5.46,46.33-16.56
	c20.51-15.88,30.47-36.92,30.83-62.41c0.02-1.08-0.66-2.91-1.43-3.16c-10.47-3.34-17.81-10.78-25.02-18.32
	c-2.27-2.38-4.16-2.78-7.39-1.6c-30.37,11.05-60.88,11.07-91.28,0.19c-3.75-1.34-5.83-0.86-8.4,1.85
	c-6.99,7.39-14.23,14.51-24.38,17.84c-0.86,0.28-1.57,2.22-1.62,3.41c-0.39,9.78,1.72,19.23,5.15,28.28
	C186.81,230.1,217.06,250.45,252.6,250.47z M170.44,141.47c5.48-5.66,10.27-10.75,15.21-15.68c7.57-7.54,10.49-7.97,20.28-3.61
	c18.23,8.1,37.28,10.85,57.15,8.55c11.64-1.35,22.68-4.6,33.2-9.59c4.49-2.13,9.15-2.83,13.12,0.46c4.77,3.96,9.04,8.51,13.46,12.87
	c2.13,2.1,4.1,4.34,6.92,7.34c0-8.36,0.02-15.44-0.01-22.51c-0.02-6.22-2.01-11.88-5.6-16.93c-10.47-14.74-24.82-25.18-41.58-31.29
	c-24.88-9.07-49.84-8.38-73.92,4.07c-12.54,6.49-23.64,14.62-31.78,26.02c-2.97,4.15-5.59,9.24-6.19,14.16
	C169.71,123.62,170.44,132.12,170.44,141.47z M222.86,272.01c0,8.97-0.04,17.41,0.05,25.84c0.01,0.99,0.59,2.04,1.13,2.93
	c8,13.4,16.03,26.78,24.08,40.15c0.51,0.86,1.2,1.61,1.82,2.42c0.48-0.37,0.75-0.49,0.88-0.7c8.53-14.18,17.05-28.36,25.56-42.55
	c0.27-0.45,0.66-0.96,0.66-1.44c0.04-8.77,0.03-17.55,0.03-26.6C258.86,276.55,241.16,276.61,222.86,272.01z M143.8,420.31
	c0.02,7.63,6.38,13.85,14.04,13.72c7.55-0.12,13.66-6.19,13.75-13.65c0.09-7.67-6.06-13.78-13.88-13.8
	C149.85,406.57,143.77,412.57,143.8,420.31z"/>
<path class="st1" d="M-264.04,461.83c1.88,4.14,4.81,7.22,9.03,9.02c-3.01,0-6.02,0-9.03,0
	C-264.04,467.85-264.04,464.84-264.04,461.83z"/>
</svg>
